<svg xmlns="http://www.w3.org/2000/svg" width="640" height="480" viewBox="0 0 320 240" role="img" aria-labelledby="title desc">
  <title id="title">Flour</title>
  <desc id="desc">ExpressBazaar subcategory image for Flour</desc>
  <defs>
    <linearGradient id="bg" x1="0" y1="0" x2="1" y2="1">
      <stop offset="0" stop-color="#FFF1BE"/>
      <stop offset="1" stop-color="#DDBB62"/>
    </linearGradient>
  </defs>
  <rect width="320" height="240" rx="28" fill="url(#bg)"/>
  <circle cx="270" cy="44" r="62" fill="#ffffff" opacity=".28"/>
  <circle cx="48" cy="214" r="70" fill="#ffffff" opacity=".2"/>
  <path d="M154 72v144M118 100c28 4 44 20 36 54-28-4-44-20-36-54ZM190 100c-28 4-44 20-36 54 28-4 44-20 36-54ZM118 156c28 4 44 20 36 54-28-4-44-20-36-54ZM190 156c-28 4-44 20-36 54 28-4 44-20 36-54Z" fill="none" stroke="#75570F" stroke-width="10" stroke-linecap="round" stroke-linejoin="round"/>
  <rect x="24" y="24" width="88" height="26" rx="13" fill="#ffffff" opacity=".72"/>
  <text x="44" y="42" font-family="Arial, Helvetica, sans-serif" font-size="12" font-weight="700" fill="#75570F">ExpressBazaar</text>
</svg>
